<?xml version="1.0" encoding="iso-8859-1"?>
<!-- Generator: Adobe Illustrator 19.0.0, SVG Export Plug-In . SVG Version: 6.00 Build 0)  -->
<svg version="1.1" id="Capa_1" xmlns="http://www.w3.org/2000/svg" xmlns:xlink="http://www.w3.org/1999/xlink" x="0px" y="0px"
	 viewBox="0 0 468.293 468.293" style="enable-background:new 0 0 468.293 468.293;" xml:space="preserve">
<circle style="fill:#DC8744;" cx="234.146" cy="234.146" r="234.146"/>
<circle style="fill:#EBF0F3;" cx="234.146" cy="234.146" r="200.804"/>
<g>
	<path style="fill:#64798A;" d="M242.081,33.488v25.74c0,4.397-3.519,7.915-7.916,7.915c-4.397,0-7.973-3.518-7.973-7.915v-25.74
		c2.638-0.117,5.276-0.176,7.973-0.176C236.804,33.312,239.443,33.37,242.081,33.488z"/>
	<path style="fill:#64798A;" d="M97.87,86.65l18.201,18.201c3.109,3.109,3.109,8.085-0.001,11.194
		c-3.109,3.109-8.125,3.15-11.235,0.041L86.635,97.885c1.782-1.948,3.606-3.855,5.513-5.762
		C94.014,90.257,95.921,88.432,97.87,86.65z"/>
	<path style="fill:#64798A;" d="M33.489,226.214h25.74c4.397,0,7.915,3.519,7.915,7.916s-3.518,7.973-7.915,7.973h-25.74
		c-0.117-2.638-0.176-5.276-0.176-7.973C33.312,231.491,33.371,228.852,33.489,226.214z"/>
	<path style="fill:#64798A;" d="M86.651,370.426l18.201-18.201c3.109-3.109,8.085-3.109,11.194,0.001
		c3.109,3.109,3.15,8.125,0.041,11.235l-18.201,18.201c-1.948-1.782-3.855-3.606-5.762-5.513
		C90.258,374.282,88.433,372.374,86.651,370.426z"/>
	<path style="fill:#64798A;" d="M226.215,434.807v-25.74c0-4.397,3.519-7.915,7.916-7.915c4.397,0,7.973,3.518,7.973,7.915v25.74
		c-2.638,0.117-5.276,0.176-7.973,0.176C231.492,434.983,228.853,434.924,226.215,434.807z"/>
	<path style="fill:#64798A;" d="M370.427,381.645l-18.201-18.201c-3.109-3.109-3.109-8.085,0.001-11.194
		c3.109-3.109,8.125-3.15,11.235-0.041l18.201,18.201c-1.782,1.948-3.606,3.855-5.513,5.762
		C374.282,378.038,372.375,379.862,370.427,381.645z"/>
	<path style="fill:#64798A;" d="M434.808,242.08h-25.74c-4.397,0-7.915-3.519-7.915-7.916s3.518-7.973,7.915-7.973h25.74
		c0.117,2.638,0.176,5.276,0.176,7.973C434.984,236.803,434.925,239.442,434.808,242.08z"/>
	<path style="fill:#64798A;" d="M381.646,97.869l-18.201,18.201c-3.109,3.109-8.085,3.109-11.194-0.001
		c-3.109-3.109-3.15-8.125-0.041-11.235l18.201-18.201c1.948,1.782,3.855,3.606,5.762,5.513
		C378.039,94.013,379.863,95.921,381.646,97.869z"/>
</g>
<path style="fill:#CE412D;" d="M310.141,245.885h-76.359c-6.476,0-11.726-5.251-11.726-11.726V124.63
	c0-6.476,5.251-11.726,11.726-11.726c6.476,0,11.726,5.251,11.726,11.726v97.802h64.633c6.476,0,11.726,5.251,11.726,11.726
	C321.867,240.635,316.617,245.885,310.141,245.885z"/>
<circle style="fill:#2F4859;" cx="234.146" cy="234.146" r="27.361"/>
<g>
</g>
<g>
</g>
<g>
</g>
<g>
</g>
<g>
</g>
<g>
</g>
<g>
</g>
<g>
</g>
<g>
</g>
<g>
</g>
<g>
</g>
<g>
</g>
<g>
</g>
<g>
</g>
<g>
</g>
</svg>
